# File created by Blade
# Date/Time:  Tue Sep 30 19:31:45 2014
#---------------------------------------------------------
:version 1.10
:name HOM
:units
  mass 1.0
  length 1.000000
  angle deg
:documentation
     Acclaim Skeleton File
:root
   axis xyz
   order TX TY TZ RX RY RZ
   position 0.000000 0.000000 0.000000
   orientation 0 0 0
:bonedata
   begin
      id 1
      name Spine_dum
      direction 0.000000 1.000000 0.000000
      length 3.241213
      axis 0.0 0.0 0.0 xyz
   end
   begin
      id 2
      name LeftUpLeg_dum
      direction 1.000000 0.000000 0.000000
      length 3.434019
      axis 0.0 0.0 0.0 xyz
   end
   begin
      id 3
      name RightUpLeg_dum
      direction -1.000000 0.000000 0.000000
      length 3.434019
      axis 0.0 0.0 0.0 xyz
   end
   begin
      id 4
      name Spine
      direction 0.000000 1.000000 0.000000
      length 0.000000
      axis 0.0 0.0 0.0 xyz
      dof rx ry rz
   end
   begin
      id 5
      name Spine_dum1
      direction 0.000000 1.000000 0.000000
      length 18.382958
      axis 0.0 0.0 0.0 xyz
   end
   begin
      id 6
      name Spine_dum2
      direction 0.000000 1.000000 0.000000
      length 12.828261
      axis 0.0 0.0 0.0 xyz
   end
   begin
      id 7
      name Spine_dum3
      direction 0.000000 1.000000 0.000000
      length 12.828261
      axis 0.0 0.0 0.0 xyz
   end
   begin
      id 8
      name Head
      direction 0.000000 1.000000 0.000000
      length 4.527550
      axis 0.0 0.0 0.0 xyz
      dof rx ry rz
   end
   begin
      id 9
      name LeftShoulder
      direction 1.000000 0.000000 0.000000
      length 7.748055
      axis 0.0 0.0 -90.0 xyz
      dof rx ry rz
   end
   begin
      id 10
      name LeftArm
      direction 1.000000 0.000000 0.000000
      length 10.635614
      axis 0.0 0.0 -90.0 xyz
      dof rx ry rz
   end
   begin
      id 11
      name LeftForeArm
      direction 1.000000 0.000000 0.000000
      length 8.346755
      axis 0.0 0.0 -90.0 xyz
      dof ry rz rx
   end
   begin
      id 12
      name LeftHand
      direction 0.000000 0.000000 0.000000
      length 0.000000
      axis 0.0 0.0 -90.0 xyz
      dof rx ry rz
   end
   begin
      id 13
      name LeftHand_dum1
      direction 0.000000 0.000000 0.000000
      length 0.000000
      axis 0.0 0.0 -90.0 xyz
   end
   begin
      id 14
      name LeftHand_dum2
      direction 1.000000 0.000000 0.000000
      length 3.937000
      axis 0.0 0.0 -90.0 xyz
   end
   begin
      id 15
      name LeftHandThumb1
      direction 0.000000 0.000000 1.000000
      length 3.937000
      axis 0.0 0.0 -90.0 xyz
      dof rx rz ry
   end
   begin
      id 16
      name RightShoulder
      direction -1.000000 0.000000 0.000000
      length 7.748055
      axis 0.0 0.0 90.0 xyz
      dof rx ry rz
   end
   begin
      id 17
      name RightArm
      direction -1.000000 0.000000 0.000000
      length 10.635614
      axis 0.0 0.0 90.0 xyz
      dof rx ry rz
   end
   begin
      id 18
      name RightForeArm
      direction -1.000000 0.000000 0.000000
      length 8.346755
      axis 0.0 0.0 90.0 xyz
      dof ry rz rx
   end
   begin
      id 19
      name RightHand
      direction 0.000000 0.000000 0.000000
      length 0.000000
      axis 0.0 0.0 90.0 xyz
      dof rx ry rz
   end
   begin
      id 20
      name RightHand_dum1
      direction 0.000000 0.000000 0.000000
      length 0.000000
      axis 0.0 0.0 90.0 xyz
   end
   begin
      id 21
      name RightHand_dum2
      direction -1.000000 0.000000 0.000000
      length 3.937000
      axis 0.0 0.0 90.0 xyz
   end
   begin
      id 22
      name RightHandThumb1
      direction 0.000000 0.000000 1.000000
      length 3.937000
      axis 0.0 0.0 90.0 xyz
      dof rx rz ry
   end
   begin
      id 23
      name LeftUpLeg
      direction 0.000000 -1.000000 0.000000
      length 15.713025
      axis 0.0 0.0 0.0 xyz
      dof rx ry rz
   end
   begin
      id 24
      name LeftLeg
      direction 0.000000 -1.000000 0.000000
      length 14.435119
      axis 0.0 0.0 0.0 xyz
      dof rx ry rz
   end
   begin
      id 25
      name LeftFoot
      direction 0.000000 -0.258819 0.965926
      length 4.938895
      axis 15.0 0.0 0.0 xyz
      dof rx ry rz
   end
   begin
      id 26
      name LeftToeBase
      direction 0.000000 0.000000 1.000000
      length 2.952750
      axis 0.0 0.0 0.0 xyz
      dof rx ry rz
   end
   begin
      id 27
      name RightUpLeg
      direction 0.000000 -1.000000 0.000000
      length 15.713025
      axis 0.0 0.0 0.0 xyz
      dof rx ry rz
   end
   begin
      id 28
      name RightLeg
      direction 0.000000 -1.000000 0.000000
      length 14.435119
      axis 0.0 0.0 0.0 xyz
      dof rx ry rz
   end
   begin
      id 29
      name RightFoot
      direction 0.000000 -0.258819 0.965926
      length 4.938895
      axis 15.0 0.0 0.0 xyz
      dof rx ry rz
   end
   begin
      id 30
      name RightToeBase
      direction 0.000000 0.000000 1.000000
      length 2.952750
      axis 0.0 0.0 0.0 xyz
      dof rx ry rz
   end
:hierarchy
   begin
      root Spine_dum LeftUpLeg_dum RightUpLeg_dum
      Spine_dum Spine
      LeftUpLeg_dum LeftUpLeg
      RightUpLeg_dum RightUpLeg
      Spine Spine_dum1 Spine_dum2 Spine_dum3
      Spine_dum1 Head
      Spine_dum2 LeftShoulder
      Spine_dum3 RightShoulder
      LeftShoulder LeftArm
      LeftArm LeftForeArm
      LeftForeArm LeftHand
      LeftHand LeftHand_dum1 LeftHand_dum2
      LeftHand_dum1 LeftHandThumb1
      RightShoulder RightArm
      RightArm RightForeArm
      RightForeArm RightHand
      RightHand RightHand_dum1 RightHand_dum2
      RightHand_dum1 RightHandThumb1
      LeftUpLeg LeftLeg
      LeftLeg LeftFoot
      LeftFoot LeftToeBase
      RightUpLeg RightLeg
      RightLeg RightFoot
      RightFoot RightToeBase
   end

# File created by Blade
# Date/Time:  Mon Sep 22 19:00:17 2014
# Frame Rate: 120.000 fps
#------------------------------------------------------
:FULLY-SPECIFIED
:DEGREES
1625
root -0.670754 32.809134 -3.959704 38.763740 1.209877 0.704920
Spine -45.726696 0.084167 -3.792731
Head 7.150109 -15.137718 -13.789479
LeftShoulder -8.842778 44.051153 11.656369
LeftArm 70.644844 34.158547 -50.874088
LeftForeArm 7.711783 -0.000000 6.045968
LeftHand -18.700000 -0.000000 -7.694893
LeftHandThumb1 -26.253704 0.000000 33.147579
RightShoulder -23.290401 -9.269571 -43.604621
RightArm 121.596257 35.917788 121.683862
RightForeArm 71.667230 -0.000000 148.491677
RightHand 13.195935 -0.000000 24.056946
RightHandThumb1 -24.326973 -0.000000 -32.862282
LeftUpLeg -33.714836 5.739906 -1.434811
LeftLeg -0.031784 -0.000000 0.000000
LeftFoot -2.035610 0.322629 -2.705115
LeftToeBase 1.803756 -0.000000 -0.000000
RightUpLeg -33.906494 -11.477660 5.684326
RightLeg -2.404133 -0.000000 0.000000
RightFoot -5.182017 -4.345353 19.021821
RightToeBase 16.171059 -0.000000 -0.000000
1626
root -0.673962 32.809322 -3.960989 38.764978 1.242258 0.705871
Spine -45.721563 0.093475 -3.813997
Head 7.200353 -15.106785 -13.731526
LeftShoulder -8.852902 44.041884 11.656701
LeftArm 70.621137 34.200742 -50.847357
LeftForeArm 7.615974 0.000000 6.064997
LeftHand -18.704203 -0.000000 -7.572898
LeftHandThumb1 -26.253704 0.000000 33.147579
RightShoulder -23.311854 -9.203000 -43.655371
RightArm 121.565191 36.002606 121.608376
RightForeArm 71.547378 -0.000000 148.472590
RightHand 13.179069 0.000000 23.936626
RightHandThumb1 -24.326973 -0.000000 -32.862282
LeftUpLeg -33.725058 5.735498 -1.423245
LeftLeg -0.028751 -0.000000 0.000000
LeftFoot -2.045383 0.285818 -2.762656
LeftToeBase 1.869331 -0.000000 -0.000000
RightUpLeg -33.901363 -11.480573 5.695926
RightLeg -2.413826 -0.000000 0.000000
RightFoot -5.183055 -4.376334 19.012614
RightToeBase 16.148058 -0.000000 -0.000000
1627
root -0.677276 32.809364 -3.962298 38.766625 1.271553 0.708988
Spine -45.717034 0.106153 -3.834472
Head 7.268075 -15.099139 -13.735683
LeftShoulder -8.891513 44.075714 11.624002
LeftArm 70.604835 34.169817 -50.871228
LeftForeArm 7.700559 -0.000000 6.058639
LeftHand -18.655709 -0.000000 -7.644814
LeftHandThumb1 -26.253704 0.000000 33.147579
RightShoulder -23.337359 -9.147748 -43.712597
RightArm 121.540864 36.082914 121.531623
RightForeArm 71.439294 0.000000 148.452068
RightHand 13.179454 -0.000000 23.796416
RightHandThumb1 -24.326973 -0.000000 -32.862282
LeftUpLeg -33.731782 5.719275 -1.407646
LeftLeg -0.031654 -0.000000 0.000000
LeftFoot -2.035867 0.285858 -2.763544
LeftToeBase 1.862438 -0.000000 -0.000000
RightUpLeg -33.901202 -11.491002 5.710432
RightLeg -2.416258 -0.000000 0.000000
RightFoot -5.194148 -4.398565 18.986043
RightToeBase 16.163243 -0.000000 -0.000000
1628
root -0.680335 32.809966 -3.963639 38.764414 1.294197 0.709090
Spine -45.710947 0.120827 -3.852819
Head 7.359189 -15.094312 -13.741493
LeftShoulder -8.926627 44.088807 11.585520
LeftArm 70.583174 34.165191 -50.893876
LeftForeArm 7.735207 -0.000000 6.048056
LeftHand -18.679192 0.000000 -7.615109
LeftHandThumb1 -26.253704 0.000000 33.147579
RightShoulder -23.375331 -9.075731 -43.787671
RightArm 121.456430 36.154466 121.437145
RightForeArm 71.286509 -0.000000 148.433497
RightHand 13.171296 -0.000000 23.653059
RightHandThumb1 -24.326973 -0.000000 -32.862282
LeftUpLeg -33.737161 5.714538 -1.394398
LeftLeg -0.026869 -0.000000 0.000000
LeftFoot -2.009879 0.280509 -2.718334
LeftToeBase 1.793007 -0.000000 -0.000000
RightUpLeg -33.899298 -11.496594 5.720672
RightLeg -2.415806 -0.000000 0.000000
RightFoot -5.184782 -4.403511 18.991614
RightToeBase 16.137644 -0.000000 -0.000000
1629
root -0.682537 32.810124 -3.964487 38.761225 1.318795 0.710770
Spine -45.706427 0.132571 -3.868170
Head 7.427285 -15.045441 -13.720699
LeftShoulder -8.917174 44.076232 11.583611
LeftArm 70.559389 34.197542 -50.867191
LeftForeArm 7.675422 -0.000000 6.056965
LeftHand -18.671275 -0.000000 -7.646927
LeftHandThumb1 -26.253704 0.000000 33.147579
RightShoulder -23.387049 -9.003134 -43.852333
RightArm 121.418771 36.253494 121.360112
RightForeArm 71.114090 -0.000000 148.395697
RightHand 13.166966 -0.000000 23.452895
RightHandThumb1 -24.326973 -0.000000 -32.862282
LeftUpLeg -33.740783 5.715274 -1.389701
LeftLeg -0.024628 -0.000000 0.000000
LeftFoot -2.027879 0.247282 -2.779019
LeftToeBase 1.893081 -0.000000 -0.000000
RightUpLeg -33.889089 -11.496544 5.725293
RightLeg -2.423992 -0.000000 0.000000
RightFoot -5.196882 -4.424161 19.001242
RightToeBase 16.097461 -0.000000 -0.000000
1630
root -0.685706 32.810040 -3.965729 38.756387 1.346814 0.710119
Spine -45.694986 0.146714 -3.887938
Head 7.501357 -15.027197 -13.712018
LeftShoulder -8.930133 44.086375 11.575647
LeftArm 70.514942 34.185129 -50.983297
LeftForeArm 7.733210 -0.000000 6.009049
LeftHand -18.632363 -0.000000 -7.617947
LeftHandThumb1 -26.253704 0.000000 33.147579
RightShoulder -23.410902 -8.957146 -43.913644
RightArm 121.411972 36.350092 121.335242
RightForeArm 70.932373 -0.000000 148.338494
RightHand 13.190047 0.000000 23.236724
RightHandThumb1 -24.326973 -0.000000 -32.862282
LeftUpLeg -33.743539 5.703050 -1.372422
LeftLeg -0.021708 -0.000000 0.000000
LeftFoot -2.021581 0.243481 -2.769175
LeftToeBase 1.861405 -0.000000 -0.000000
RightUpLeg -33.884714 -11.519016 5.748992
RightLeg -2.427892 -0.000000 0.000000
RightFoot -5.189660 -4.411137 19.002751
RightToeBase 16.105613 -0.000000 -0.000000
